<svg xmlns="http://www.w3.org/2000/svg" xmlns:xlink="http://www.w3.org/1999/xlink" width="62" height="59" viewBox="0 0 62 59"><defs><path id="2rhfa" d="M646.99 633.006v5.906c0 2.656 3.01 3.563 3.843 4.396.834.834-.833 1.666-.833 1.666h-24.062c-1.792.063-.584-2-.584-2s3.646-2.177 3.646-4.177v-5.802zM610 586h56a3 3 0 0 1 3 3v40a3 3 0 0 1-3 3h-56a3 3 0 0 1-3-3v-40a3 3 0 0 1 3-3zm1 8.016v23.938l.005 4.062h53.99l.005-4.062v-23.938l-.005-4.063h-53.99zm26.988 30.61c.845.082 1.466-.788 1.417-1.626-.79.01-1.44.787-1.417 1.626zm.794.157c-.162.05-.603.275-.78.244-.387-.07-.751-.384-1.239-.308-1.145.175-1.89 1.25-1.597 2.692.08.394.18.75.323 1.081.224.518.702 1.308 1.217 1.518.416.17.914-.174 1.303-.237.575-.092.846.358 1.368.273.605-.1 1.015-.817 1.26-1.297.085-.167.2-.368.236-.572-.424-.135-.755-.556-.888-.988-.228-.746.194-1.57.688-1.769l.014-.021c-.269-.431-.78-.715-1.49-.702l-.415.086z"/></defs><g><g transform="translate(-607 -586)"><use fill="#616161" xlink:href="#2rhfa"/></g></g></svg>