<svg xmlns="http://www.w3.org/2000/svg" xmlns:xlink="http://www.w3.org/1999/xlink" width="10" height="10" viewBox="0 0 10 10"><defs><path id="e95ya" d="M916 2027a1 1 0 0 1-1-1v-1c0-.405.244-.75.59-.907l-.717.062c-.08-.349-.262-.694-.669-.672-.81.046-3.96-.135-4.5.046-.408.136-.55.474-.634 1.136l-.135.012a.983.983 0 0 1 .065.323v1a1 1 0 1 1-2 0v-1c0-.055.023-.103.032-.156v-.003a.98.98 0 0 1 .087-.29c.424-1.331 2.394-2.289 2.957-2.43.604-.15 1.395-.169 2.299-.183.571-.01.46.136 1.517.1 1.057-.039 3.108 1.931 3.108 1.931l-.805.07a.986.986 0 0 1 .805.961v1a1 1 0 0 1-1 1zm-8.296 3.06c.802-.963 2.146-2.502 3.108-3.21 1.33-.977 2.186-.094 5.342 3.181.437.07.768.41.822.852l.054.056h-.042c0 .021.012.04.012.061a1 1 0 0 1-1 1h-8a1 1 0 0 1-1-1c0-.447.299-.812.704-.94zm4.171.527a1.306 1.306 0 1 0 0-2.611 1.306 1.306 0 0 0 0 2.611z"/></defs><g><g transform="translate(-907 -2022)"><use fill="#ff6760" xlink:href="#e95ya"/></g></g></svg>